<svg xmlns="http://www.w3.org/2000/svg" width="1280" height="520" viewBox="0 0 1280 520" role="img" aria-labelledby="title desc">
<title id="title">Filip Kasperkiewicz — Founder and CEO of VEZ</title>
<desc id="desc">Minimal monochrome banner for the GitHub profile of Filip Kasperkiewicz.</desc>
<defs>
  <radialGradient id="g" cx="84%" cy="22%" r="68%">
    <stop offset="0" stop-color="#d9dde4" stop-opacity=".55"/>
    <stop offset=".45" stop-color="#d9dde4" stop-opacity=".09"/>
    <stop offset="1" stop-color="#07090c" stop-opacity="0"/>
  </radialGradient>
  <linearGradient id="edge" x1="0" y1="0" x2="1" y2="1">
    <stop offset="0" stop-color="#f7f8fa" stop-opacity=".18"/>
    <stop offset="1" stop-color="#f7f8fa" stop-opacity=".03"/>
  </linearGradient>
</defs>
<rect width="1280" height="520" rx="28" fill="#07090c"/>
<rect x=".75" y=".75" width="1278.5" height="518.5" rx="27.25" fill="none" stroke="#252a32" stroke-width="1.5"/>
<rect width="1280" height="520" rx="28" fill="url(#g)"/>
<g opacity=".42" fill="none" stroke="#252a32">
  <circle cx="1110" cy="70" r="166"/>
  <circle cx="1110" cy="70" r="246"/>
  <circle cx="1110" cy="70" r="326"/>
  <path d="M760 0 C880 170 1050 215 1280 160"/>
</g>
<path d="M875 430 C1020 314 1122 255 1280 215 L1280 520 L780 520 Z" fill="url(#edge)" opacity=".55"/>
<g font-family="-apple-system,BlinkMacSystemFont,'Segoe UI',Inter,Arial,sans-serif">
  <text x="64" y="74" fill="#a7adb7" font-size="17" font-weight="600" letter-spacing="5">VEZCODE</text>
  <text x="64" y="213" fill="#f7f8fa" font-size="76" font-weight="700" letter-spacing="-3">FILIP</text>
  <text x="64" y="290" fill="#f7f8fa" font-size="67" font-weight="300" letter-spacing="-2">KASPERKIEWICZ</text>
  <text x="68" y="345" fill="#a7adb7" font-size="22" font-weight="400">Founder &amp; CEO of VEZ</text>
  <text x="68" y="385" fill="#a7adb7" font-size="19">Building software, products and infrastructure.</text>
  <g transform="translate(68 431)">
    <rect width="177" height="43" rx="12" fill="none" stroke="#252a32"/>
    <text x="20" y="28" fill="#f7f8fa" font-size="14" font-weight="600" letter-spacing="1.4">VEZ ECOSYSTEM</text>
    <path d="M151 21h10m-4-4 4 4-4 4" stroke="#f7f8fa" fill="none" stroke-linecap="round" stroke-linejoin="round"/>
  </g>
  <text x="1160" y="74" text-anchor="end" fill="#a7adb7" font-size="14" letter-spacing="2">BIELSKO-BIAŁA · PL</text>
  <circle cx="1169" cy="450" r="4" fill="#f7f8fa"/>
  <text x="1154" y="456" text-anchor="end" fill="#a7adb7" font-size="13" letter-spacing="1.6">BUILDING</text>
</g>
</svg>